<svg version="1.2" xmlns="http://www.w3.org/2000/svg" viewBox="0 0 512 512" width="512" height="512"><defs><linearGradient id="P" gradientUnits="userSpaceOnUse"/><linearGradient id="g1" x2="1" href="#P" gradientTransform="matrix(268.033,-154.749,214.754,371.965,183.881,270.875)"><stop stop-color="#202b3d"/><stop offset="1" stop-color="#435368"/></linearGradient><linearGradient id="g2" x2="1" href="#P" gradientTransform="matrix(251.24,-145.053,150.11,259.998,62.56,416.727)"><stop stop-color="#202b3d"/><stop offset="1" stop-color="#435368"/></linearGradient></defs><style>.a{fill:#fff}.b{fill:url(#g1)}.c{opacity:.98;fill:#1c2739}.d{opacity:.95;fill:#4a5c72}.e{fill:url(#g2)}.f{opacity:.99;fill:#1c2739}</style><path fill-rule="evenodd" class="a" d="m242.6 499.2l-190.4-110c-8.2-4.6-13.4-13.4-13.4-23v-219.8c0-9.6 5.2-18.4 13.4-23.2l190.4-110c8.2-4.6 18.4-4.6 26.6 0l190.4 110c8.4 4.8 13.4 13.6 13.4 23.2v219.8c0 9.6-5 18.4-13.4 23l-190.4 110c-8.2 4.8-18.4 4.8-26.6 0z"/><path fill-rule="evenodd" class="b" d="m374.2 277.4q45.8 27.6 77.6 70.8 0.4-95.4-0.6-190.6-3-13.8-14.2-22.4-78.8-45.6-157.4-91.2-6.4-4-13.8-5.2 0.2 44.6-0.6 89-1.6 20.8-16.6 34.8-29.6 17.8-59.2 35.4-13 14 4.6 21.8 8.4 3.2 17 0 40.6-25.4 82.2-49.2 48.4-16.2 85 19 28.2 37.6 4.6 78.6-3.4 5.6-8.6 9.2z"/><path fill-rule="evenodd" class="c" d="m62.6 232.8q31.2-5.6 62.8-7.8-2.4-23.2 13.2-40 6.6-7.2 14.2-13.2 23.4-12.8 45.6-27.4 18.6-11.6 20-33.6 2.8-28.6 0.6-57.2-68 39.2-135.8 78.2-17 9.2-20 28-0.8 36.6-0.6 73z"/><path fill-rule="evenodd" class="d" d="m271.6 236.4q21.4 4.6 42.2 12.4 20.2-12.4 3.4-29-7-3.8-14.8-2.4-16.2 8.6-30.8 19z"/><path fill-rule="evenodd" class="e" d="m125.4 225q-31.6 2.2-62.8 7.8-0.2 60.6 0.6 121 2.8 17.2 17.6 25.8 72.8 42 145.6 83.8-0.2-52.8-1.6-105.6-0.4-30 14.2-56.4 6-7.6 13.2-14.2 31.2-18.8 61.6-38.4-20.8-7.8-42.2-12.4-29.4 18.4-59.4 35.8-42 16-73.6-15.4-10.8-14.2-13.2-31.8z"/><path fill-rule="evenodd" class="f" d="m374.2 277.4q-41.8 25-83.2 50.8-15 11.6-19 30.2-1 57.2 0 114.2 84.4-48.6 168.4-97.6 11.6-10.8 11.4-26.8-31.8-43.2-77.6-70.8z"/></svg>