<svg version="1.2" xmlns="http://www.w3.org/2000/svg" viewBox="0 0 256 256" width="256" height="256">
	<title>favicon</title>
	<style>
		.s0 { fill: #ffffff } 
		.s1 { opacity: .98;fill: #0798ee } 
		.s2 { opacity: .95;fill: #0798ee } 
		.s3 { opacity: .98;fill: #0985f1 } 
		.s4 { opacity: .99;fill: #0985f1 } 
	</style>
	<path id="Shape 1" fill-rule="evenodd" class="s0" d="m121.3 249.6l-95.2-55c-4.1-2.3-6.7-6.7-6.7-11.5v-109.9c0-4.8 2.6-9.2 6.7-11.6l95.2-55c4.1-2.3 9.2-2.3 13.3 0l95.2 55c4.2 2.4 6.7 6.8 6.7 11.6v109.9c0 4.8-2.5 9.2-6.7 11.5l-95.2 55c-4.1 2.4-9.2 2.4-13.3 0z"/>
	<g>
		<path fill-rule="evenodd" class="s1" d="m187.1 138.7q22.9 13.8 38.8 35.4 0.2-47.7-0.3-95.3-1.5-6.9-7.1-11.2-39.4-22.8-78.7-45.6-3.2-2-6.9-2.6 0.1 22.3-0.3 44.5-0.8 10.4-8.3 17.4-14.8 8.9-29.6 17.7-6.5 7 2.3 10.9 4.2 1.6 8.5 0 20.3-12.7 41.1-24.6 24.2-8.1 42.5 9.5 14.1 18.8 2.3 39.3-1.7 2.8-4.3 4.6z"/>
	</g>
	<g>
		<path fill-rule="evenodd" class="s1" d="m31.3 116.4q15.6-2.8 31.4-3.9-1.2-11.6 6.6-20 3.3-3.6 7.1-6.6 11.7-6.4 22.8-13.7 9.3-5.8 10-16.8 1.4-14.3 0.3-28.6-34 19.6-67.9 39.1-8.5 4.6-10 14-0.4 18.3-0.3 36.5z"/>
	</g>
	<g>
		<path fill-rule="evenodd" class="s2" d="m135.8 118.2q10.7 2.3 21.1 6.2 10.1-6.2 1.7-14.5-3.5-1.9-7.4-1.2-8.1 4.3-15.4 9.5z"/>
	</g>
	<g>
		<path fill-rule="evenodd" class="s3" d="m62.7 112.5q-15.8 1.1-31.4 3.9-0.1 30.3 0.3 60.5 1.4 8.6 8.8 12.9 36.4 21 72.8 41.9-0.1-26.4-0.8-52.8-0.2-15 7.1-28.2 3-3.8 6.6-7.1 15.6-9.4 30.8-19.2-10.4-3.9-21.1-6.2-14.7 9.2-29.7 17.9-21 8-36.8-7.7-5.4-7.1-6.6-15.9z"/>
	</g>
	<g>
		<path fill-rule="evenodd" class="s4" d="m187.1 138.7q-20.9 12.5-41.6 25.4-7.5 5.8-9.5 15.1-0.5 28.6 0 57.1 42.2-24.3 84.2-48.8 5.8-5.4 5.7-13.4-15.9-21.6-38.8-35.4z"/>
	</g>
</svg>